<svg xmlns="http://www.w3.org/2000/svg" viewBox="0 0 512 512" width="512" height="512">
  <rect width="512" height="512" rx="96" fill="#fdf3ee"/>
  <svg x="112" y="112" width="288" height="288" viewBox="0 0 24 24" fill="none" stroke="#935447" stroke-linecap="round" stroke-linejoin="round" stroke-width="1.5">
    <circle cx="16" cy="4" r="1"/>
    <path d="m18 19 1-7-6 1"/>
    <path d="M8,5l5.5,3-2.4,3.5"/>
    <path d="M8 5 L5 8"/>
    <path d="M4.2,14.5c-.8,2.6.7,5.4,3.3,6.2,1.2.4,2.4.3,3.6-.2"/>
    <path d="M13.8,17.5c.8-2.6-.7-5.4-3.3-6.2-1.2-.4-2.4-.3-3.6.2"/>
    <path d="M13,13.1c-.5-.7-1.1-1.2-1.9-1.6"/>
  </svg>
</svg>
